<?xml version="1.0" encoding="UTF-8"?><svg id="Layer_1" xmlns="http://www.w3.org/2000/svg" viewBox="0 0 500 500"><rect y="0" width="500" height="500" style="fill:#343434;"/><rect x="8" width="484" height="500"/><g><path d="M304.25,314.92l-54.25-74.44v127.29l54.25-52.86Z" style="fill:#efff1f; fill-rule:evenodd;"/><g><polygon points="424.4 396.41 387.81 430.24 349.14 466.16 313.07 499.98 278.29 464.59 250 435.44 221.71 464.59 187.19 499.98 150.86 466.16 112.19 430.24 75.6 396.41 44.45 367.25 7.86 333.42 7.86 500 492.14 500 492.14 333.42 455.81 367.25 424.4 396.41" style="fill:#343434; fill-rule:evenodd;"/><polygon points="62.37 258.45 91.69 218.11 250 0 7.86 0 7.86 333.42 37.2 293.08 62.37 258.45" style="fill:#343434; fill-rule:evenodd;"/><polygon points="250 0 408.58 218.11 437.89 258.45 462.8 293.08 492.14 333.42 492.14 0 250 0" style="fill:#343434; fill-rule:evenodd;"/><path d="M249.69,84.5l-121.66,167.45-29.33,40.34-24.91,34.62,31.14,29.14,36.61,33.84,43.85,40.86,64.63-62.97v-127.29l-54.25,74.44,41.27,38.52-36.08,33.84-34.51-32-36.34-33.84,29.33-40.34,90.57-124.69V88.05c0-1.18-.13-2.36-.31-3.55Z" style="fill:#0abdff; fill-rule:evenodd;"/><path d="M401.3,292.29l-29.33-40.34L250,84.07l-.31,.43c.18,1.18,.31,2.36,.31,3.55v68.36l90.57,124.69,29.33,40.34-36.34,33.84-48.53,45.02,29.6,30.45,44.11-40.86,36.34-33.84,31.4-29.14-25.17-34.62Z" style="fill:#efff1f; fill-rule:evenodd;"/></g></g></svg>
