<?xml version="1.0" encoding="UTF-8"?><svg id="Layer_1" xmlns="http://www.w3.org/2000/svg" viewBox="0 0 500 500"><rect width="500" height="500"/><path d="M304.25,314.92l-54.25-74.44v127.29l54.25-52.86h0Z" style="fill:#efff1f; fill-rule:evenodd;"/><g><polygon points="430.06 396.41 392.28 430.24 352.36 466.16 315.12 499.98 279.21 464.59 250 435.44 220.79 464.59 185.15 499.98 147.64 466.16 107.72 430.24 69.94 396.41 37.78 367.25 0 333.42 0 500 500 500 500 333.42 462.49 367.25 430.06 396.41" style="fill:#343434; fill-rule:evenodd;"/><polygon points="56.28 258.45 86.55 218.11 250 0 0 0 0 333.42 30.29 293.08 56.28 258.45" style="fill:#343434; fill-rule:evenodd;"/><polygon points="250 0 413.73 218.11 443.99 258.45 469.71 293.08 500 333.42 500 0 250 0" style="fill:#343434; fill-rule:evenodd;"/><path d="M249.68,84.5L124.07,251.95l-30.28,40.34-25.72,34.62,32.15,29.14,37.8,33.84,45.27,40.86,66.73-62.97v-127.29l-56.01,74.44,42.61,38.52-37.25,33.84-35.63-32-37.52-33.84,30.28-40.34,93.51-124.69V88.05c0-1.18-.13-2.36-.32-3.55h-.01Z" style="fill:#0abdff; fill-rule:evenodd;"/><path d="M406.21,292.29l-30.28-40.34L250,84.07l-.32,.43c.19,1.18,.32,2.36,.32,3.55v68.36l93.51,124.69,30.28,40.34-37.52,33.84-50.11,45.02,30.56,30.45,45.54-40.86,37.52-33.84,32.42-29.14-25.99-34.62h-.01Z" style="fill:#efff1f; fill-rule:evenodd;"/></g></svg>
